<svg xmlns="http://www.w3.org/2000/svg" xmlns:xlink="http://www.w3.org/1999/xlink" width="500" zoomAndPan="magnify" viewBox="0 0 375 374.999991" height="500" preserveAspectRatio="xMidYMid meet" version="1.0"><defs><clipPath id="c43dd1de08"><path d="M 145 89.777344 L 263 89.777344 L 263 161 L 145 161 Z M 145 89.777344 " clip-rule="nonzero"/></clipPath><clipPath id="1f94fc9935"><path d="M 168 89.777344 L 189 89.777344 L 189 124 L 168 124 Z M 168 89.777344 " clip-rule="nonzero"/></clipPath><clipPath id="ea2aeea8bf"><path d="M 256 188 L 295.730469 188 L 295.730469 254 L 256 254 Z M 256 188 " clip-rule="nonzero"/></clipPath><clipPath id="96cbb758f7"><path d="M 98.480469 240 L 253 240 L 253 285 L 98.480469 285 Z M 98.480469 240 " clip-rule="nonzero"/></clipPath></defs><rect x="-37.5" width="450" fill="#ffffff" y="-37.499999" height="449.999989" fill-opacity="1"/><rect x="-37.5" width="450" fill="#ffffff" y="-37.499999" height="449.999989" fill-opacity="1"/><g clip-path="url(#c43dd1de08)"><path fill="#00b378" d="M 255.8125 89.8125 L 152.039062 89.8125 C 148.34375 89.8125 145.347656 92.816406 145.347656 96.515625 L 145.347656 153.488281 C 145.347656 157.191406 148.34375 160.191406 152.039062 160.191406 L 255.8125 160.191406 C 259.511719 160.191406 262.507812 157.191406 262.507812 153.488281 L 262.507812 96.515625 C 262.507812 92.816406 259.511719 89.8125 255.8125 89.8125 " fill-opacity="1" fill-rule="nonzero"/></g><path fill="#ef7154" d="M 192.210938 197.054688 L 192.210938 270.785156 L 208.949219 270.785156 C 229.285156 270.785156 245.769531 254.277344 245.769531 233.917969 C 245.769531 213.558594 229.285156 197.054688 208.949219 197.054688 L 192.210938 197.054688 " fill-opacity="1" fill-rule="nonzero"/><path fill="#ff8662" d="M 229.03125 233.917969 C 229.03125 254.277344 212.546875 270.785156 192.210938 270.785156 C 171.875 270.785156 155.386719 254.277344 155.386719 233.917969 C 155.386719 213.558594 171.875 197.054688 192.210938 197.054688 C 212.546875 197.054688 229.03125 213.558594 229.03125 233.917969 " fill-opacity="1" fill-rule="nonzero"/><path fill="#009866" d="M 192.210938 160.191406 L 255.8125 160.191406 C 259.511719 160.191406 262.507812 157.191406 262.507812 153.488281 L 262.507812 96.515625 C 262.507812 95.980469 262.4375 95.460938 262.320312 94.960938 C 259.683594 131.425781 229.304688 160.191406 192.210938 160.191406 " fill-opacity="1" fill-rule="nonzero"/><path fill="#f2e6d2" d="M 144.316406 156.722656 L 203.925781 156.722656 C 199.304688 156.722656 195.558594 152.972656 195.558594 148.34375 C 195.558594 143.71875 199.304688 139.964844 203.925781 139.964844 L 226.835938 139.964844 C 230.382812 139.964844 233.789062 141.378906 236.300781 143.890625 L 241.847656 149.445312 C 244.359375 151.957031 247.765625 153.371094 251.316406 153.371094 L 292.636719 153.488281 L 292.636719 180.296875 L 249.117188 180.179688 L 243.984375 181.210938 C 225.332031 184.945312 206.082031 184.386719 187.679688 179.582031 L 142.886719 167.882812 C 140.390625 167.230469 138.652344 164.976562 138.652344 162.394531 C 138.652344 159.261719 141.1875 156.722656 144.316406 156.722656 " fill-opacity="1" fill-rule="nonzero"/><path fill="#dacfbd" d="M 207.273438 160.191406 L 222.339844 160.191406 C 224.1875 160.191406 225.683594 158.691406 225.683594 156.839844 C 225.683594 154.988281 224.1875 153.488281 222.339844 153.488281 L 207.273438 153.488281 C 205.425781 153.488281 203.925781 154.988281 203.925781 156.839844 C 203.925781 158.691406 205.425781 160.191406 207.273438 160.191406 " fill-opacity="1" fill-rule="nonzero"/><g clip-path="url(#1f94fc9935)"><path fill="#70d6b1" d="M 168.777344 89.8125 L 168.777344 123.328125 L 188.863281 123.328125 L 188.863281 89.8125 L 168.777344 89.8125 " fill-opacity="1" fill-rule="nonzero"/></g><path fill="#aae5cf" d="M 101.828125 187 C 101.828125 204.476562 106.558594 221.234375 115.566406 235.933594 L 105.832031 233.984375 L 104.519531 240.554688 L 124.539062 244.566406 L 128.542969 224.523438 L 121.980469 223.207031 L 120.417969 231.011719 C 112.613281 217.710938 108.523438 202.664062 108.523438 187 C 108.523438 162.476562 118.9375 138.949219 137.089844 122.457031 L 132.589844 117.492188 C 113.042969 135.253906 101.828125 160.589844 101.828125 187 " fill-opacity="1" fill-rule="nonzero"/><g clip-path="url(#ea2aeea8bf)"><path fill="#ffbfac" d="M 295.742188 209.214844 L 287.425781 188.398438 L 270.542969 201.078125 L 274.558594 206.4375 L 281.425781 201.28125 C 278.453125 219.265625 269.875 235.949219 256.804688 248.910156 L 261.515625 253.671875 C 274.664062 240.632812 283.589844 224.089844 287.320312 206.179688 L 289.527344 211.707031 L 295.742188 209.214844 " fill-opacity="1" fill-rule="nonzero"/></g><path fill="#ff8662" d="M 245.160156 240.621094 L 222.339844 240.621094 L 222.339844 247.324219 L 243.257812 247.324219 C 244.09375 245.179688 244.734375 242.9375 245.160156 240.621094 " fill-opacity="1" fill-rule="nonzero"/><path fill="#ff8662" d="M 243.257812 220.515625 L 222.339844 220.515625 L 222.339844 227.214844 L 245.160156 227.214844 C 244.734375 224.898438 244.09375 222.65625 243.257812 220.515625 " fill-opacity="1" fill-rule="nonzero"/><path fill="#d97253" d="M 177.070312 267.535156 C 181.6875 269.621094 186.816406 270.785156 192.210938 270.785156 C 212.546875 270.785156 229.03125 254.277344 229.03125 233.917969 C 229.03125 228.519531 227.871094 223.386719 225.785156 218.761719 C 218.640625 242.023438 200.304688 260.375 177.070312 267.535156 " fill-opacity="1" fill-rule="nonzero"/><g clip-path="url(#96cbb758f7)"><path fill="#f2e6d2" d="M 246.800781 257.261719 L 187.1875 257.261719 C 191.8125 257.261719 195.558594 253.511719 195.558594 248.882812 C 195.558594 244.257812 191.8125 240.503906 187.1875 240.503906 L 164.28125 240.503906 C 160.730469 240.503906 157.324219 241.917969 154.816406 244.429688 L 149.265625 249.984375 C 146.757812 252.496094 143.351562 253.910156 139.800781 253.910156 L 98.480469 254.027344 L 98.480469 280.835938 L 142 280.71875 L 147.132812 281.746094 C 165.78125 285.484375 185.035156 284.925781 203.4375 280.121094 L 248.230469 268.421875 C 250.722656 267.769531 252.464844 265.515625 252.464844 262.933594 C 252.464844 259.800781 249.929688 257.261719 246.800781 257.261719 " fill-opacity="1" fill-rule="nonzero"/></g><path fill="#dacfbd" d="M 183.84375 260.730469 L 168.777344 260.730469 C 166.929688 260.730469 165.429688 259.230469 165.429688 257.378906 C 165.429688 255.527344 166.929688 254.027344 168.777344 254.027344 L 183.84375 254.027344 C 185.691406 254.027344 187.1875 255.527344 187.1875 257.378906 C 187.1875 259.230469 185.691406 260.730469 183.84375 260.730469 " fill-opacity="1" fill-rule="nonzero"/></svg>