<svg xmlns="http://www.w3.org/2000/svg" xmlns:xlink="http://www.w3.org/1999/xlink" width="500" zoomAndPan="magnify" viewBox="0 0 375 374.999991" height="500" preserveAspectRatio="xMidYMid meet" version="1.0"><defs><clipPath id="3c3fc84d48"><path d="M 247 253 L 303.234375 253 L 303.234375 305 L 247 305 Z M 247 253 " clip-rule="nonzero"/></clipPath><clipPath id="1d0b87f506"><path d="M 71.484375 99 L 111 99 L 111 154 L 71.484375 154 Z M 71.484375 99 " clip-rule="nonzero"/></clipPath></defs><rect x="-37.5" width="450" fill="#ffffff" y="-37.499999" height="449.999989" fill-opacity="1"/><rect x="-37.5" width="450" fill="#ffffff" y="-37.499999" height="449.999989" fill-opacity="1"/><path fill="#2d3142" d="M 218.257812 192.53125 L 210.535156 192.53125 C 210.535156 191.898438 210.5 191.269531 210.4375 190.640625 C 210.375 190.011719 210.285156 189.386719 210.160156 188.765625 C 210.035156 188.144531 209.882812 187.535156 209.699219 186.929688 C 209.511719 186.324219 209.300781 185.730469 209.058594 185.144531 C 208.816406 184.5625 208.546875 183.992188 208.246094 183.433594 C 207.949219 182.878906 207.625 182.335938 207.273438 181.808594 C 206.921875 181.285156 206.542969 180.777344 206.144531 180.289062 C 205.742188 179.800781 205.316406 179.332031 204.871094 178.886719 C 204.425781 178.4375 203.957031 178.015625 203.46875 177.613281 C 202.980469 177.210938 202.472656 176.835938 201.945312 176.484375 C 201.421875 176.132812 200.878906 175.808594 200.320312 175.511719 C 199.761719 175.210938 199.191406 174.941406 198.609375 174.699219 C 198.023438 174.457031 197.429688 174.246094 196.824219 174.0625 C 196.21875 173.878906 195.609375 173.722656 194.988281 173.597656 C 194.367188 173.476562 193.742188 173.382812 193.113281 173.320312 C 192.484375 173.257812 191.855469 173.226562 191.222656 173.222656 L 191.222656 165.503906 C 192.105469 165.503906 192.988281 165.546875 193.871094 165.636719 C 194.75 165.722656 195.625 165.851562 196.496094 166.027344 C 197.363281 166.199219 198.21875 166.414062 199.066406 166.671875 C 199.914062 166.929688 200.746094 167.230469 201.5625 167.566406 C 202.382812 167.90625 203.179688 168.285156 203.960938 168.703125 C 204.742188 169.121094 205.5 169.574219 206.234375 170.066406 C 206.972656 170.558594 207.683594 171.085938 208.367188 171.648438 C 209.050781 172.207031 209.707031 172.800781 210.332031 173.425781 C 210.957031 174.054688 211.550781 174.707031 212.113281 175.390625 C 212.675781 176.074219 213.199219 176.785156 213.691406 177.523438 C 214.183594 178.257812 214.640625 179.015625 215.058594 179.796875 C 215.476562 180.574219 215.855469 181.375 216.191406 182.191406 C 216.53125 183.007812 216.832031 183.839844 217.089844 184.6875 C 217.347656 185.535156 217.5625 186.390625 217.734375 187.257812 C 217.90625 188.128906 218.039062 189 218.125 189.882812 C 218.214844 190.761719 218.257812 191.644531 218.257812 192.53125 Z M 218.257812 192.53125 " fill-opacity="1" fill-rule="nonzero"/><path fill="#e9ff70" d="M 214.398438 192.53125 L 214.398438 184.808594 C 214.398438 183.792969 214.496094 182.789062 214.695312 181.796875 C 214.890625 180.800781 215.183594 179.835938 215.574219 178.898438 C 215.960938 177.960938 216.4375 177.070312 217 176.226562 C 217.5625 175.382812 218.203125 174.605469 218.921875 173.886719 C 219.640625 173.167969 220.417969 172.53125 221.261719 171.964844 C 222.105469 171.402344 222.996094 170.925781 223.933594 170.539062 C 224.871094 170.152344 225.835938 169.859375 226.832031 169.660156 C 227.828125 169.460938 228.832031 169.363281 229.847656 169.363281 L 229.847656 177.085938 C 229.847656 178.101562 229.746094 179.105469 229.550781 180.097656 C 229.351562 181.09375 229.058594 182.058594 228.671875 182.996094 C 228.28125 183.933594 227.804688 184.824219 227.242188 185.667969 C 226.679688 186.507812 226.039062 187.289062 225.320312 188.007812 C 224.605469 188.722656 223.824219 189.363281 222.980469 189.925781 C 222.136719 190.492188 221.246094 190.96875 220.308594 191.355469 C 219.371094 191.742188 218.40625 192.035156 217.410156 192.234375 C 216.414062 192.433594 215.410156 192.53125 214.398438 192.53125 Z M 214.398438 192.53125 " fill-opacity="1" fill-rule="nonzero"/><path fill="#ff6b6b" d="M 239.464844 238.941406 C 240.371094 237.082031 241.027344 235.140625 241.433594 233.113281 L 244.832031 215.8125 C 247.613281 201.757812 237.609375 189.289062 225.289062 189.289062 C 223.625 189.28125 221.988281 189.5 220.382812 189.945312 C 217.152344 190.847656 213.921875 190.847656 210.6875 189.945312 L 208.410156 189.324219 C 194.582031 185.582031 181.679688 198.285156 183.691406 213.691406 L 186.046875 231.644531 C 186.160156 232.886719 186.382812 234.105469 186.714844 235.308594 C 187.046875 236.507812 187.488281 237.671875 188.03125 238.792969 C 188.574219 239.914062 189.210938 240.976562 189.949219 241.984375 C 190.683594 242.988281 191.503906 243.921875 192.410156 244.78125 C 193.3125 245.636719 194.285156 246.410156 195.328125 247.089844 C 196.371094 247.773438 197.46875 248.355469 198.617188 248.839844 C 199.765625 249.324219 200.949219 249.699219 202.167969 249.972656 C 203.382812 250.242188 204.613281 250.402344 205.859375 250.449219 L 221.851562 250.449219 C 223.664062 250.449219 225.441406 250.191406 227.183594 249.675781 Z M 239.464844 238.941406 " fill-opacity="1" fill-rule="nonzero"/><path fill="#b7b7a4" d="M 202.808594 219.558594 L 195.085938 219.558594 C 195.085938 218.925781 195.117188 218.296875 195.179688 217.667969 C 195.242188 217.039062 195.335938 216.414062 195.460938 215.792969 C 195.582031 215.175781 195.738281 214.5625 195.921875 213.957031 C 196.105469 213.351562 196.316406 212.757812 196.5625 212.175781 C 196.804688 211.589844 197.074219 211.019531 197.371094 210.464844 C 197.667969 209.90625 197.996094 209.363281 198.347656 208.839844 C 198.699219 208.3125 199.074219 207.804688 199.476562 207.316406 C 199.875 206.828125 200.300781 206.363281 200.746094 205.914062 C 201.195312 205.46875 201.664062 205.042969 202.152344 204.640625 C 202.640625 204.242188 203.148438 203.863281 203.671875 203.515625 C 204.199219 203.164062 204.738281 202.835938 205.296875 202.539062 C 205.855469 202.242188 206.425781 201.972656 207.011719 201.730469 C 207.59375 201.488281 208.1875 201.273438 208.792969 201.089844 C 209.398438 200.90625 210.011719 200.75 210.628906 200.628906 C 211.25 200.503906 211.875 200.410156 212.503906 200.347656 C 213.132812 200.285156 213.765625 200.253906 214.398438 200.253906 L 214.398438 207.976562 C 213.636719 207.976562 212.882812 208.050781 212.136719 208.199219 C 211.390625 208.347656 210.664062 208.566406 209.960938 208.855469 C 209.257812 209.148438 208.589844 209.503906 207.960938 209.925781 C 207.328125 210.351562 206.742188 210.832031 206.203125 211.367188 C 205.664062 211.90625 205.183594 212.492188 204.761719 213.125 C 204.339844 213.757812 203.984375 214.421875 203.691406 215.125 C 203.398438 215.828125 203.179688 216.554688 203.03125 217.300781 C 202.882812 218.046875 202.808594 218.796875 202.808594 219.558594 Z M 202.808594 219.558594 " fill-opacity="1" fill-rule="nonzero"/><path fill="#f9c74f" d="M 183.535156 133.492188 C 184.027344 133.929688 184.527344 134.351562 185.042969 134.761719 C 185.558594 135.167969 186.082031 135.5625 186.617188 135.941406 C 187.15625 136.320312 187.703125 136.683594 188.257812 137.03125 C 188.816406 137.378906 189.382812 137.710938 189.960938 138.027344 C 190.535156 138.34375 191.121094 138.644531 191.714844 138.925781 C 192.304688 139.207031 192.90625 139.472656 193.515625 139.722656 C 194.125 139.96875 194.738281 140.203125 195.359375 140.414062 C 195.980469 140.628906 196.605469 140.824219 197.238281 141.003906 C 197.871094 141.179688 198.507812 141.339844 199.148438 141.484375 C 199.792969 141.625 200.4375 141.75 201.085938 141.855469 C 201.734375 141.960938 202.382812 142.046875 203.039062 142.117188 C 203.691406 142.183594 204.34375 142.234375 205 142.265625 C 205.65625 142.296875 206.316406 142.3125 206.972656 142.304688 C 207.628906 142.300781 208.285156 142.277344 208.941406 142.234375 C 209.597656 142.191406 210.25 142.128906 210.902344 142.046875 C 211.554688 141.96875 212.203125 141.871094 212.851562 141.753906 C 213.496094 141.636719 214.140625 141.503906 214.777344 141.347656 C 215.417969 141.195312 216.050781 141.023438 216.679688 140.835938 C 217.308594 140.648438 217.933594 140.441406 218.550781 140.214844 C 219.167969 139.992188 219.777344 139.75 220.382812 139.492188 C 220.984375 139.230469 221.582031 138.957031 222.167969 138.664062 C 222.757812 138.371094 223.335938 138.0625 223.90625 137.734375 C 224.476562 137.410156 225.039062 137.066406 225.589844 136.710938 C 226.140625 136.351562 226.679688 135.980469 227.210938 135.59375 C 227.742188 135.203125 228.261719 134.800781 228.765625 134.382812 C 229.273438 133.964844 229.769531 133.535156 230.253906 133.089844 C 230.734375 132.644531 231.203125 132.183594 231.660156 131.714844 C 232.117188 131.242188 232.5625 130.757812 232.988281 130.257812 C 233.417969 129.761719 233.835938 129.253906 234.234375 128.730469 C 234.632812 128.210938 235.019531 127.679688 235.390625 127.136719 C 235.761719 126.59375 236.113281 126.042969 236.453125 125.480469 C 236.792969 124.917969 237.113281 124.34375 237.421875 123.765625 C 237.726562 123.183594 238.019531 122.59375 238.289062 121.996094 C 238.5625 121.398438 238.820312 120.792969 239.058594 120.183594 C 239.296875 119.570312 239.519531 118.953125 239.722656 118.328125 C 239.925781 117.703125 240.113281 117.074219 240.28125 116.4375 C 240.445312 115.804688 240.597656 115.164062 240.730469 114.523438 C 240.859375 113.878906 240.972656 113.230469 241.070312 112.582031 C 241.164062 111.933594 241.242188 111.28125 241.296875 110.625 C 241.355469 109.972656 241.394531 109.316406 241.417969 108.660156 C 241.4375 108.003906 241.441406 107.347656 241.421875 106.691406 C 241.40625 106.035156 241.371094 105.378906 241.320312 104.722656 C 241.265625 104.070312 241.191406 103.417969 241.101562 102.765625 C 241.011719 102.117188 240.902344 101.46875 240.777344 100.824219 C 240.648438 100.179688 240.503906 99.539062 240.339844 98.902344 C 240.175781 98.265625 239.996094 97.636719 239.796875 97.011719 C 239.597656 96.386719 239.378906 95.765625 239.144531 95.152344 C 238.910156 94.539062 238.65625 93.933594 238.390625 93.332031 C 238.121094 92.734375 237.835938 92.140625 237.53125 91.558594 C 237.230469 90.976562 236.910156 90.402344 236.578125 89.835938 C 236.242188 89.273438 235.890625 88.71875 235.523438 88.171875 C 235.15625 87.628906 234.777344 87.09375 234.378906 86.570312 C 233.984375 86.046875 233.570312 85.535156 233.144531 85.035156 C 232.71875 84.535156 232.28125 84.046875 231.828125 83.570312 C 231.375 83.09375 230.90625 82.632812 230.425781 82.183594 C 229.949219 81.734375 229.457031 81.300781 228.949219 80.878906 C 228.445312 80.460938 227.929688 80.054688 227.402344 79.660156 C 226.875 79.269531 226.339844 78.894531 225.789062 78.53125 C 225.242188 78.171875 224.683594 77.824219 224.113281 77.496094 C 223.546875 77.167969 222.96875 76.851562 222.382812 76.554688 C 221.796875 76.257812 221.203125 75.980469 220.601562 75.714844 C 220 75.453125 219.390625 75.207031 218.773438 74.980469 C 218.15625 74.75 217.535156 74.539062 216.910156 74.34375 C 216.28125 74.152344 215.648438 73.976562 215.011719 73.820312 C 214.371094 73.660156 213.730469 73.523438 213.085938 73.402344 C 212.4375 73.28125 211.789062 73.175781 211.140625 73.09375 C 210.488281 73.007812 209.832031 72.941406 209.179688 72.894531 C 208.523438 72.847656 207.867188 72.820312 207.210938 72.808594 C 206.554688 72.800781 205.898438 72.808594 205.242188 72.835938 C 204.582031 72.863281 203.929688 72.90625 203.273438 72.972656 C 202.621094 73.035156 201.96875 73.117188 201.320312 73.21875 C 200.671875 73.320312 200.027344 73.441406 199.382812 73.578125 C 198.742188 73.714844 198.101562 73.871094 197.46875 74.042969 C 196.835938 74.21875 196.207031 74.410156 195.585938 74.621094 C 194.960938 74.828125 194.347656 75.054688 193.738281 75.300781 C 193.125 75.542969 192.523438 75.804688 191.929688 76.085938 C 191.335938 76.363281 190.746094 76.660156 190.167969 76.96875 C 189.589844 77.28125 189.023438 77.609375 188.460938 77.953125 C 187.902344 78.296875 187.355469 78.65625 186.8125 79.03125 C 186.273438 79.40625 185.746094 79.796875 185.230469 80.203125 C 184.710938 80.609375 184.207031 81.027344 183.714844 81.460938 C 183.222656 81.894531 182.742188 82.34375 182.273438 82.804688 C 181.804688 83.265625 181.351562 83.738281 180.910156 84.226562 C 180.46875 84.710938 180.039062 85.210938 179.628906 85.722656 C 179.214844 86.230469 178.816406 86.753906 178.433594 87.289062 C 178.050781 87.820312 177.683594 88.367188 177.332031 88.917969 C 176.980469 89.472656 176.640625 90.039062 176.320312 90.609375 C 176 91.183594 175.699219 91.765625 175.410156 92.355469 C 175.121094 92.949219 174.851562 93.546875 174.597656 94.152344 C 174.347656 94.757812 174.109375 95.371094 173.890625 95.988281 C 173.671875 96.609375 173.472656 97.234375 173.289062 97.863281 C 173.105469 98.496094 172.941406 99.132812 172.792969 99.769531 C 172.644531 100.410156 172.515625 101.054688 172.40625 101.703125 C 172.296875 102.351562 172.203125 103 172.128906 103.652344 C 172.054688 104.304688 172 104.960938 171.964844 105.613281 C 171.925781 106.269531 171.910156 106.925781 171.910156 107.582031 C 171.914062 110.148438 172.195312 112.6875 172.757812 115.191406 Z M 183.535156 133.492188 " fill-opacity="1" fill-rule="nonzero"/><path fill="#2d3142" d="M 206.671875 103.722656 C 206.160156 103.722656 205.667969 103.625 205.195312 103.429688 C 204.71875 103.234375 204.304688 102.953125 203.941406 102.589844 C 203.578125 102.230469 203.300781 101.8125 203.101562 101.339844 C 202.90625 100.867188 202.808594 100.375 202.808594 99.859375 C 202.808594 99.347656 202.90625 98.855469 203.101562 98.382812 C 203.300781 97.910156 203.578125 97.492188 203.941406 97.128906 C 204.304688 96.769531 204.71875 96.488281 205.195312 96.292969 C 205.667969 96.097656 206.160156 96 206.671875 96 C 207.183594 96 207.675781 96.097656 208.148438 96.292969 C 208.625 96.488281 209.039062 96.769531 209.402344 97.128906 C 209.765625 97.492188 210.042969 97.910156 210.242188 98.382812 C 210.4375 98.855469 210.535156 99.347656 210.535156 99.859375 L 218.257812 99.859375 C 218.253906 98.667969 218.070312 97.503906 217.703125 96.367188 C 217.339844 95.230469 216.8125 94.175781 216.121094 93.203125 C 215.429688 92.226562 214.605469 91.382812 213.652344 90.664062 C 212.699219 89.945312 211.660156 89.386719 210.535156 88.988281 L 210.535156 84.417969 L 202.808594 84.417969 L 202.808594 88.988281 C 202.171875 89.210938 201.554688 89.492188 200.964844 89.824219 C 200.375 90.15625 199.820312 90.539062 199.296875 90.96875 C 198.773438 91.398438 198.292969 91.871094 197.855469 92.386719 C 197.414062 92.902344 197.023438 93.453125 196.679688 94.035156 C 196.339844 94.621094 196.046875 95.230469 195.8125 95.863281 C 195.578125 96.5 195.398438 97.148438 195.277344 97.816406 C 195.15625 98.480469 195.09375 99.152344 195.089844 99.828125 C 195.085938 100.507812 195.140625 101.179688 195.257812 101.847656 C 195.371094 102.511719 195.542969 103.164062 195.773438 103.804688 C 196.003906 104.441406 196.285156 105.050781 196.621094 105.640625 C 196.960938 106.226562 197.34375 106.78125 197.78125 107.300781 C 198.214844 107.820312 198.691406 108.296875 199.207031 108.730469 C 199.726562 109.167969 200.277344 109.554688 200.867188 109.894531 C 201.453125 110.234375 202.0625 110.519531 202.699219 110.75 C 203.335938 110.980469 203.988281 111.15625 204.65625 111.269531 C 205.324219 111.386719 205.996094 111.445312 206.671875 111.445312 C 207.183594 111.445312 207.675781 111.542969 208.148438 111.738281 C 208.625 111.933594 209.039062 112.214844 209.402344 112.574219 C 209.765625 112.9375 210.042969 113.355469 210.242188 113.828125 C 210.4375 114.300781 210.535156 114.792969 210.535156 115.304688 C 210.535156 115.816406 210.4375 116.3125 210.242188 116.785156 C 210.042969 117.257812 209.765625 117.675781 209.402344 118.035156 C 209.039062 118.398438 208.625 118.675781 208.148438 118.875 C 207.675781 119.070312 207.183594 119.167969 206.671875 119.167969 C 206.160156 119.167969 205.667969 119.070312 205.195312 118.875 C 204.71875 118.675781 204.304688 118.398438 203.941406 118.035156 C 203.578125 117.675781 203.300781 117.257812 203.101562 116.785156 C 202.90625 116.3125 202.808594 115.816406 202.808594 115.304688 L 195.085938 115.304688 C 195.089844 116.5 195.273438 117.664062 195.640625 118.800781 C 196.003906 119.9375 196.53125 120.992188 197.222656 121.964844 C 197.914062 122.9375 198.738281 123.785156 199.691406 124.503906 C 200.644531 125.222656 201.683594 125.78125 202.808594 126.179688 L 202.808594 130.75 L 210.535156 130.75 L 210.535156 126.179688 C 211.171875 125.953125 211.789062 125.675781 212.378906 125.34375 C 212.96875 125.007812 213.523438 124.628906 214.046875 124.199219 C 214.570312 123.765625 215.050781 123.292969 215.488281 122.777344 C 215.929688 122.265625 216.320312 121.714844 216.664062 121.128906 C 217.003906 120.546875 217.296875 119.9375 217.53125 119.304688 C 217.765625 118.667969 217.945312 118.019531 218.066406 117.351562 C 218.1875 116.6875 218.25 116.015625 218.253906 115.335938 C 218.257812 114.660156 218.203125 113.988281 218.085938 113.320312 C 217.972656 112.652344 217.800781 112 217.570312 111.363281 C 217.339844 110.726562 217.058594 110.113281 216.722656 109.527344 C 216.382812 108.941406 216 108.386719 215.5625 107.867188 C 215.128906 107.347656 214.652344 106.871094 214.136719 106.433594 C 213.617188 106 213.066406 105.613281 212.476562 105.273438 C 211.890625 104.933594 211.28125 104.648438 210.644531 104.417969 C 210.007812 104.1875 209.355469 104.011719 208.6875 103.894531 C 208.019531 103.777344 207.347656 103.722656 206.671875 103.722656 Z M 206.671875 103.722656 " fill-opacity="1" fill-rule="nonzero"/><g clip-path="url(#3c3fc84d48)"><path fill="#5c677d" d="M 281.707031 253.617188 L 247.722656 284.777344 L 269.25 304.507812 L 303.234375 273.351562 Z M 281.707031 253.617188 " fill-opacity="1" fill-rule="nonzero"/></g><path fill="#fec3a6" d="M 270.789062 248.816406 C 268.605469 246.871094 266.242188 245.183594 263.691406 243.757812 C 261.136719 242.332031 258.464844 241.195312 255.664062 240.351562 C 252.863281 239.511719 250.007812 238.980469 247.09375 238.761719 C 244.175781 238.546875 241.273438 238.644531 238.378906 239.0625 L 225.828125 235.285156 C 225.28125 235.121094 224.71875 235.027344 224.144531 235.003906 C 223.570312 234.984375 223.003906 235.035156 222.445312 235.160156 C 221.882812 235.285156 221.347656 235.476562 220.839844 235.738281 C 220.328125 236 219.859375 236.320312 219.429688 236.703125 C 219.101562 236.988281 218.816406 237.308594 218.566406 237.664062 C 218.316406 238.015625 218.113281 238.394531 217.953125 238.800781 C 217.792969 239.203125 217.683594 239.621094 217.625 240.050781 C 217.566406 240.476562 217.558594 240.910156 217.601562 241.339844 C 217.648438 241.769531 217.742188 242.191406 217.886719 242.601562 C 218.03125 243.007812 218.21875 243.394531 218.457031 243.757812 C 218.695312 244.121094 218.96875 244.449219 219.285156 244.746094 C 219.601562 245.042969 219.949219 245.300781 220.324219 245.515625 L 230.183594 251.511719 L 246.40625 256.386719 C 244.101562 256.984375 241.773438 257.460938 239.417969 257.816406 C 237.066406 258.171875 234.699219 258.40625 232.320312 258.519531 C 229.945312 258.632812 227.566406 258.625 225.191406 258.492188 C 222.8125 258.363281 220.449219 258.109375 218.097656 257.738281 C 215.75 257.363281 213.421875 256.871094 211.121094 256.257812 C 208.824219 255.644531 206.558594 254.917969 204.335938 254.070312 C 202.109375 253.226562 199.933594 252.269531 197.808594 251.199219 C 195.679688 250.132812 193.613281 248.957031 191.609375 247.675781 L 184.1875 242.839844 C 183.425781 242.355469 182.609375 242.003906 181.734375 241.785156 C 180.855469 241.566406 179.96875 241.496094 179.070312 241.566406 C 178.171875 241.640625 177.304688 241.855469 176.476562 242.210938 C 175.648438 242.566406 174.894531 243.042969 174.222656 243.644531 C 173.835938 243.984375 173.492188 244.359375 173.191406 244.777344 C 172.894531 245.191406 172.644531 245.636719 172.445312 246.113281 C 172.25 246.585938 172.105469 247.074219 172.019531 247.582031 C 171.9375 248.085938 171.910156 248.597656 171.941406 249.109375 C 171.972656 249.621094 172.0625 250.121094 172.210938 250.613281 C 172.355469 251.105469 172.558594 251.574219 172.8125 252.019531 C 173.066406 252.464844 173.367188 252.875 173.71875 253.253906 C 174.066406 253.628906 174.453125 253.960938 174.878906 254.25 L 188.761719 264.117188 C 193.316406 267.300781 198.109375 270.066406 203.140625 272.417969 C 208.175781 274.769531 213.371094 276.675781 218.734375 278.125 C 224.097656 279.578125 229.542969 280.5625 235.078125 281.070312 C 240.609375 281.582031 246.144531 281.613281 251.679688 281.164062 L 278.898438 256.21875 Z M 270.789062 248.816406 " fill-opacity="1" fill-rule="nonzero"/><g clip-path="url(#1d0b87f506)"><path fill="#5c677d" d="M 110.109375 153.917969 L 71.484375 153.917969 L 71.484375 99.859375 L 110.109375 99.859375 Z M 110.109375 153.917969 " fill-opacity="1" fill-rule="nonzero"/></g><path fill="#fec3a6" d="M 187.359375 125.191406 C 187.359375 126.0625 187.257812 126.921875 187.054688 127.769531 C 186.851562 128.617188 186.550781 129.429688 186.152344 130.207031 C 185.753906 130.980469 185.269531 131.699219 184.699219 132.359375 C 184.128906 133.019531 183.488281 133.601562 182.777344 134.109375 C 182.738281 134.148438 182.664062 134.1875 182.628906 134.226562 L 159.335938 150.058594 L 110.109375 150.058594 L 110.109375 103.722656 L 121.46875 103.722656 L 136.617188 88.277344 L 176.453125 88.277344 C 174.566406 91.144531 173.136719 94.21875 172.15625 97.507812 C 171.175781 100.796875 170.6875 104.152344 170.695312 107.582031 C 170.699219 109.421875 170.839844 111.25 171.113281 113.066406 L 147.960938 130.75 L 171.097656 116 C 171.257812 115.878906 171.433594 115.789062 171.628906 115.730469 C 172.125 115.445312 172.640625 115.207031 173.179688 115.007812 C 173.71875 114.808594 174.269531 114.65625 174.832031 114.546875 C 175.394531 114.441406 175.960938 114.382812 176.535156 114.367188 C 177.109375 114.355469 177.675781 114.390625 178.246094 114.472656 C 178.8125 114.554688 179.367188 114.679688 179.914062 114.855469 C 180.460938 115.027344 180.988281 115.246094 181.5 115.507812 C 182.007812 115.769531 182.492188 116.070312 182.953125 116.414062 C 183.414062 116.753906 183.839844 117.132812 184.238281 117.546875 C 185.238281 118.566406 186.011719 119.738281 186.550781 121.0625 C 187.089844 122.386719 187.359375 123.761719 187.359375 125.191406 Z M 187.359375 125.191406 " fill-opacity="1" fill-rule="nonzero"/></svg>